{
	"asset":{
		"generator":"Khronos glTF Blender I/O v4.2.57",
		"version":"2.0"
	},
	"extensionsUsed":[
		"KHR_materials_transmission",
		"KHR_materials_ior"
	],
	"scene":0,
	"scenes":[
		{
			"name":"Scene",
			"nodes":[
				0,
				1,
				2
			]
		}
	],
	"nodes":[
		{
			"mesh":0,
			"name":"Cube",
			"scale":[
				0.009999990463256836,
				0.009999990463256836,
				0.009999990463256836
			]
		},
		{
			"mesh":1,
			"name":"Sugar",
			"translation":[
				-0.01882888376712799,
				-0.003323502838611603,
				0
			]
		},
		{
			"mesh":2,
			"name":"Plane",
			"scale":[
				0.14049267768859863,
				0.14049267768859863,
				0.14049267768859863
			]
		}
	],
	"materials":[
		{
			"doubleSided":true,
			"name":"Candy.001"
		},
		{
			"doubleSided":true,
			"extensions":{
				"KHR_materials_transmission":{
					"transmissionFactor":1
				},
				"KHR_materials_ior":{
					"ior":1.4500000476837158
				}
			},
			"name":"Sugar Crystal",
			"pbrMetallicRoughness":{
				"metallicFactor":0,
				"roughnessFactor":0.24957266449928284
			}
		},
		{
			"doubleSided":true,
			"name":"Material",
			"pbrMetallicRoughness":{
				"baseColorFactor":[
					0.6650550961494446,
					0.6650550961494446,
					0.6650550961494446,
					1
				],
				"metallicFactor":0,
				"roughnessFactor":0.5
			}
		}
	],
	"meshes":[
		{
			"name":"Cube",
			"primitives":[
				{
					"attributes":{
						"POSITION":0,
						"NORMAL":1,
						"TEXCOORD_0":2
					},
					"indices":3,
					"material":0
				}
			]
		},
		{
			"name":"Cube.001",
			"primitives":[
				{
					"attributes":{
						"POSITION":4,
						"NORMAL":5,
						"TEXCOORD_0":6
					},
					"indices":7,
					"material":1
				}
			]
		},
		{
			"name":"Plane",
			"primitives":[
				{
					"attributes":{
						"POSITION":8,
						"NORMAL":9,
						"TEXCOORD_0":10
					},
					"indices":11,
					"material":2
				}
			]
		}
	],
	"accessors":[
		{
			"bufferView":0,
			"componentType":5126,
			"count":19,
			"max":[
				1,
				1.5906363725662231,
				1
			],
			"min":[
				-1,
				-0.09000146389007568,
				-1
			],
			"type":"VEC3"
		},
		{
			"bufferView":1,
			"componentType":5126,
			"count":19,
			"type":"VEC3"
		},
		{
			"bufferView":2,
			"componentType":5126,
			"count":19,
			"type":"VEC2"
		},
		{
			"bufferView":3,
			"componentType":5123,
			"count":60,
			"type":"SCALAR"
		},
		{
			"bufferView":4,
			"componentType":5126,
			"count":24,
			"max":[
				0.0009999992325901985,
				0.0009999992325901985,
				0.0009999992325901985
			],
			"min":[
				-0.0009999992325901985,
				-0.0009999992325901985,
				-0.0009999992325901985
			],
			"type":"VEC3"
		},
		{
			"bufferView":5,
			"componentType":5126,
			"count":24,
			"type":"VEC3"
		},
		{
			"bufferView":6,
			"componentType":5126,
			"count":24,
			"type":"VEC2"
		},
		{
			"bufferView":7,
			"componentType":5123,
			"count":36,
			"type":"SCALAR"
		},
		{
			"bufferView":8,
			"componentType":5126,
			"count":4,
			"max":[
				1,
				0,
				1
			],
			"min":[
				-1,
				0,
				-1
			],
			"type":"VEC3"
		},
		{
			"bufferView":9,
			"componentType":5126,
			"count":4,
			"type":"VEC3"
		},
		{
			"bufferView":10,
			"componentType":5126,
			"count":4,
			"type":"VEC2"
		},
		{
			"bufferView":11,
			"componentType":5123,
			"count":6,
			"type":"SCALAR"
		}
	],
	"bufferViews":[
		{
			"buffer":0,
			"byteLength":228,
			"byteOffset":0,
			"target":34962
		},
		{
			"buffer":0,
			"byteLength":228,
			"byteOffset":228,
			"target":34962
		},
		{
			"buffer":0,
			"byteLength":152,
			"byteOffset":456,
			"target":34962
		},
		{
			"buffer":0,
			"byteLength":120,
			"byteOffset":608,
			"target":34963
		},
		{
			"buffer":0,
			"byteLength":288,
			"byteOffset":728,
			"target":34962
		},
		{
			"buffer":0,
			"byteLength":288,
			"byteOffset":1016,
			"target":34962
		},
		{
			"buffer":0,
			"byteLength":192,
			"byteOffset":1304,
			"target":34962
		},
		{
			"buffer":0,
			"byteLength":72,
			"byteOffset":1496,
			"target":34963
		},
		{
			"buffer":0,
			"byteLength":48,
			"byteOffset":1568,
			"target":34962
		},
		{
			"buffer":0,
			"byteLength":48,
			"byteOffset":1616,
			"target":34962
		},
		{
			"buffer":0,
			"byteLength":32,
			"byteOffset":1664,
			"target":34962
		},
		{
			"buffer":0,
			"byteLength":12,
			"byteOffset":1696,
			"target":34963
		}
	],
	"buffers":[
		{
			"byteLength":1708,
			"uri":"sugar_candy.bin"
		}
	]
}
